<svg viewBox="0 0 16 16" xmlns="http://www.w3.org/2000/svg">
    <g fill="none" fill-rule="evenodd">
        <path d="M8.982 5.348a5.97 5.97 0 0 0-.984.456 10.485 10.485 0 0 0-.157-1.645A10.6 10.6 0 0 0 6 4c-.656 0-1.276.058-1.841.159A10.6 10.6 0 0 0 4 6c0 .656.058 1.276.159 1.841.509.09 1.062.147 1.645.157a5.97 5.97 0 0 0-.456.984c-.32-.017-.633-.047-.936-.088.174.564.393 1.037.63 1.392a6.062 6.062 0 0 0 .03 1.643A6.001 6.001 0 0 1 6 0a6.001 6.001 0 0 1 5.929 5.071 6.046 6.046 0 0 0-1.643-.029c-.355-.237-.828-.456-1.392-.63.041.303.071.615.088.936zm.01 1.071c-.013.402-.047.793-.098 1.17C10.182 7.188 11 6.562 11 6c.342 0 .676.034 1 .1A6 6 0 0 1 6.1 12a5.023 5.023 0 0 1-.1-1c.563 0 1.19-.818 1.588-2.106a11.75 11.75 0 0 1-1.169.099 4.98 4.98 0 0 1 .618-1.042c.278-.027.547-.064.804-.11.046-.257.083-.526.11-.804a4.997 4.997 0 0 1 1.042-.618zm1.629 1.495c-.53.319-1.189.582-1.937.77-.188.748-.451 1.407-.77 1.937a5.017 5.017 0 0 0 2.707-2.707zm0-3.828A5.017 5.017 0 0 0 7.914 1.38c.319.53.582 1.189.77 1.937.748.188 1.407.451 1.937.77zm-9.242 0c.53-.319 1.189-.582 1.937-.77.188-.748.451-1.407.77-1.937A5.017 5.017 0 0 0 1.38 4.086zm0 3.828a5.017 5.017 0 0 0 2.707 2.707c-.319-.53-.582-1.189-.77-1.937-.748-.188-1.407-.451-1.937-.77zm1.727-.326A11.735 11.735 0 0 1 3 6c0-.55.037-1.082.106-1.588C1.818 4.81 1 5.437 1 6c0 .563.818 1.19 2.106 1.588zm4.482-4.482C7.19 1.818 6.563 1 6 1c-.563 0-1.19.818-1.588 2.106C4.918 3.037 5.45 3 6 3s1.082.037 1.588.106z"
              fill="#3D4757" fill-rule="nonzero"/>
        <circle fill="#3CBB7B" cx="11" cy="11" r="5"/>
        <g fill="#FFF" fill-rule="nonzero">
            <path d="M8.151 11.18l1.415-1.414 2.828 2.828-1.414 1.414z"/>
            <path d="M9.566 12.594L13.1 9.06l1.414 1.414-3.535 3.535z"/>
        </g>
    </g>
</svg>